<mxfile host="app.diagrams.net" modified="2020-10-27T18:21:28.219Z" agent="5.0 (Windows NT 10.0; Win64; x64) AppleWebKit/537.36 (KHTML, like Gecko) Chrome/86.0.4240.111 Safari/537.36" etag="tlBW7kdOjl5tIzxglOc0" version="13.7.5" type="github">
  <diagram id="JbXhAkidSnbRRIGTgEpA" name="Page-1">
    <mxGraphModel dx="1251" dy="333" grid="0" gridSize="10" guides="1" tooltips="1" connect="1" arrows="1" fold="1" page="0" pageScale="1" pageWidth="827" pageHeight="1169" math="0" shadow="0">
      <root>
        <mxCell id="0" />
        <mxCell id="1" parent="0" />
        <mxCell id="IcCmw85TVp6SGMo99fT6-1" value="Eksamensoppgave kommer på avveie" style="rounded=0;whiteSpace=wrap;html=1;" parent="1" vertex="1">
          <mxGeometry x="354" y="40" width="136" height="60" as="geometry" />
        </mxCell>
        <mxCell id="IcCmw85TVp6SGMo99fT6-10" style="edgeStyle=orthogonalEdgeStyle;rounded=0;orthogonalLoop=1;jettySize=auto;html=1;exitX=0.5;exitY=0;exitDx=0;exitDy=0;entryX=0.25;entryY=1;entryDx=0;entryDy=0;" parent="1" source="IcCmw85TVp6SGMo99fT6-2" target="IcCmw85TVp6SGMo99fT6-1" edge="1">
          <mxGeometry relative="1" as="geometry" />
        </mxCell>
        <mxCell id="IcCmw85TVp6SGMo99fT6-2" value="Oppgaven lekkes av ledd som har tilgang til den" style="rounded=0;whiteSpace=wrap;html=1;" parent="1" vertex="1">
          <mxGeometry x="134" y="150" width="120" height="60" as="geometry" />
        </mxCell>
        <mxCell id="IcCmw85TVp6SGMo99fT6-11" style="edgeStyle=orthogonalEdgeStyle;rounded=0;orthogonalLoop=1;jettySize=auto;html=1;exitX=0.5;exitY=0;exitDx=0;exitDy=0;entryX=0.75;entryY=1;entryDx=0;entryDy=0;" parent="1" source="IcCmw85TVp6SGMo99fT6-3" target="IcCmw85TVp6SGMo99fT6-1" edge="1">
          <mxGeometry relative="1" as="geometry" />
        </mxCell>
        <mxCell id="IcCmw85TVp6SGMo99fT6-3" value="Datainnbrudd hos ledd som har tilgang til oppgaven" style="rounded=0;whiteSpace=wrap;html=1;" parent="1" vertex="1">
          <mxGeometry x="571" y="150" width="120" height="60" as="geometry" />
        </mxCell>
        <mxCell id="IcCmw85TVp6SGMo99fT6-12" style="edgeStyle=orthogonalEdgeStyle;rounded=0;orthogonalLoop=1;jettySize=auto;html=1;exitX=0.5;exitY=0;exitDx=0;exitDy=0;entryX=0.25;entryY=1;entryDx=0;entryDy=0;" parent="1" source="IcCmw85TVp6SGMo99fT6-4" target="IcCmw85TVp6SGMo99fT6-2" edge="1">
          <mxGeometry relative="1" as="geometry" />
        </mxCell>
        <mxCell id="IcCmw85TVp6SGMo99fT6-4" value="Noen som har tilgang til oppgaven med uhell sender/laster den opp til feil sted der uvedkommende kan se den" style="rounded=0;whiteSpace=wrap;html=1;" parent="1" vertex="1">
          <mxGeometry x="76" y="260" width="121" height="96" as="geometry" />
        </mxCell>
        <mxCell id="IcCmw85TVp6SGMo99fT6-13" style="edgeStyle=orthogonalEdgeStyle;rounded=0;orthogonalLoop=1;jettySize=auto;html=1;exitX=0.5;exitY=0;exitDx=0;exitDy=0;entryX=0.75;entryY=1;entryDx=0;entryDy=0;" parent="1" source="IcCmw85TVp6SGMo99fT6-5" target="IcCmw85TVp6SGMo99fT6-2" edge="1">
          <mxGeometry relative="1" as="geometry" />
        </mxCell>
        <mxCell id="IcCmw85TVp6SGMo99fT6-5" value="Noen som har tilgang til oppgaven vil hjelpe en kandidat og gir oppgaven til dem" style="rounded=0;whiteSpace=wrap;html=1;" parent="1" vertex="1">
          <mxGeometry x="208" y="260" width="112" height="82" as="geometry" />
        </mxCell>
        <mxCell id="IcCmw85TVp6SGMo99fT6-14" style="edgeStyle=orthogonalEdgeStyle;rounded=0;orthogonalLoop=1;jettySize=auto;html=1;exitX=0.5;exitY=0;exitDx=0;exitDy=0;entryX=1;entryY=0.5;entryDx=0;entryDy=0;" parent="1" source="IcCmw85TVp6SGMo99fT6-6" target="IcCmw85TVp6SGMo99fT6-2" edge="1">
          <mxGeometry relative="1" as="geometry" />
        </mxCell>
        <mxCell id="IcCmw85TVp6SGMo99fT6-6" value="&lt;span&gt;Betale eller utpresse noen som har tilgang til oppgaven&lt;/span&gt;" style="rounded=0;whiteSpace=wrap;html=1;" parent="1" vertex="1">
          <mxGeometry x="330" y="260" width="106" height="60" as="geometry" />
        </mxCell>
        <mxCell id="IcCmw85TVp6SGMo99fT6-15" style="edgeStyle=orthogonalEdgeStyle;rounded=0;orthogonalLoop=1;jettySize=auto;html=1;exitX=0.5;exitY=0;exitDx=0;exitDy=0;entryX=0;entryY=0.5;entryDx=0;entryDy=0;" parent="1" source="IcCmw85TVp6SGMo99fT6-7" target="IcCmw85TVp6SGMo99fT6-3" edge="1">
          <mxGeometry relative="1" as="geometry" />
        </mxCell>
        <mxCell id="IcCmw85TVp6SGMo99fT6-7" value="Får tilgang til fysisk datamaskin med oppgaven på" style="rounded=0;whiteSpace=wrap;html=1;" parent="1" vertex="1">
          <mxGeometry x="457" y="260" width="102" height="60" as="geometry" />
        </mxCell>
        <mxCell id="IcCmw85TVp6SGMo99fT6-16" style="edgeStyle=orthogonalEdgeStyle;rounded=0;orthogonalLoop=1;jettySize=auto;html=1;exitX=0.5;exitY=0;exitDx=0;exitDy=0;entryX=0.5;entryY=1;entryDx=0;entryDy=0;" parent="1" source="IcCmw85TVp6SGMo99fT6-8" target="IcCmw85TVp6SGMo99fT6-3" edge="1">
          <mxGeometry relative="1" as="geometry" />
        </mxCell>
        <mxCell id="IcCmw85TVp6SGMo99fT6-8" value="Får tilgang til filsystem eller server med oppgaven på gjennom skadevare og/eller sikkerhetshull" style="rounded=0;whiteSpace=wrap;html=1;" parent="1" vertex="1">
          <mxGeometry x="571" y="260" width="120" height="83" as="geometry" />
        </mxCell>
        <mxCell id="oDoLkrrNiiYBK4p5C7g_-2" style="edgeStyle=orthogonalEdgeStyle;rounded=0;orthogonalLoop=1;jettySize=auto;html=1;exitX=0.5;exitY=0;exitDx=0;exitDy=0;entryX=1;entryY=0.5;entryDx=0;entryDy=0;" edge="1" parent="1" source="oDoLkrrNiiYBK4p5C7g_-1" target="IcCmw85TVp6SGMo99fT6-3">
          <mxGeometry relative="1" as="geometry" />
        </mxCell>
        <mxCell id="oDoLkrrNiiYBK4p5C7g_-1" value="Avlytter nettverkstrafikk når oppgaven sendes mellom systemer" style="rounded=0;whiteSpace=wrap;html=1;" vertex="1" parent="1">
          <mxGeometry x="703" y="260" width="98" height="84" as="geometry" />
        </mxCell>
        <mxCell id="oDoLkrrNiiYBK4p5C7g_-4" style="edgeStyle=orthogonalEdgeStyle;rounded=0;orthogonalLoop=1;jettySize=auto;html=1;exitX=0.5;exitY=0;exitDx=0;exitDy=0;entryX=0;entryY=0.5;entryDx=0;entryDy=0;" edge="1" parent="1" source="oDoLkrrNiiYBK4p5C7g_-3" target="IcCmw85TVp6SGMo99fT6-2">
          <mxGeometry relative="1" as="geometry" />
        </mxCell>
        <mxCell id="oDoLkrrNiiYBK4p5C7g_-3" value="Noen som har tilgang til oppgaven viser med vilje eller uhell oppgaven til uvedkommende på sin datamaskin" style="rounded=0;whiteSpace=wrap;html=1;" vertex="1" parent="1">
          <mxGeometry x="-55" y="260" width="120" height="96" as="geometry" />
        </mxCell>
      </root>
    </mxGraphModel>
  </diagram>
</mxfile>
